# xmcd
#
# Track frame offsets: 
#        150
#        21768
#        41304
#        56765
#        75036
#        93069
#        109966
#        122697
#        139366
#        153438
#        172022
#        187957
#        208914
#        229214
#        248994
#        268385
#        286495
#        301884
#        314838
#        328515
#
# Disc length: 4615 seconds
#
# Revision: 0
# Processed by: cddbd v1.5.2PL0 Copyright (c) Steve Scherf et al.
# Submitted via: ExactAudioCopy v0.95b2
#
DISCID=1f120514
DTITLE=Kottonmouth Kings - Long Live The Kings
DYEAR=2010
DGENRE=Punk Rock
TTITLE0=Long Live The Kings
TTITLE1=Party Monster (feat. Tech N9ne)
TTITLE2=Rampage
TTITLE3=Great When You're High
TTITLE4=Stomp
TTITLE5=Lucky Day
TTITLE6=At It Again
TTITLE7=Make It Rain
TTITLE8=Party Girls
TTITLE9=Mushrooms
TTITLE10=Black Smoke
TTITLE11=Fuck the Police (feat. Insane Clown Posse)
TTITLE12=Reefer Madness
TTITLE13=Checkmate
TTITLE14=Kill The Pain
TTITLE15=Mad Respect
TTITLE16=Let's Do Drugs (feat. Big B)
TTITLE17=Let The Indo Blow
TTITLE18=Take It To The Top
TTITLE19=Simple and Free
EXTD=
EXTT0=
EXTT1=
EXTT2=
EXTT3=
EXTT4=
EXTT5=
EXTT6=
EXTT7=
EXTT8=
EXTT9=
EXTT10=
EXTT11=
EXTT12=
EXTT13=
EXTT14=
EXTT15=
EXTT16=
EXTT17=
EXTT18=
EXTT19=
PLAYORDER=
